<svg width="1024" height="1024" viewBox="0 0 1024 1024" fill="none" xmlns="http://www.w3.org/2000/svg">
<rect width="1024" height="1024" rx="128" fill="#101010"/>
<path d="M291.048 784C199.527 784 125.333 710.68 125.333 620.235C125.333 529.79 199.527 456.47 291.048 456.47C302.034 456.47 312.77 457.525 323.158 459.544M323.158 459.544C314.3 435.915 309.46 410.359 309.46 383.686C309.46 263.093 408.385 165.333 530.413 165.333C644.081 165.333 737.701 250.156 749.997 359.246M323.158 459.544C344.983 463.778 365.271 472.246 383.111 484.047M749.997 359.246C773.031 351.199 664.175 349.5 690 349.5C715.315 349.5 727.347 351.501 749.997 359.246ZM749.997 359.246C836.529 388.836 898.667 470.069 898.667 565.645C898.667 670.316 824.141 757.788 724.667 779.058" stroke="#888888" stroke-width="50" stroke-linecap="round"/>
<g clip-path="url(#clip0_273_19)">
<path d="M613.23 468.451C604.963 472.953 594.643 469.896 590.204 461.67C585.71 453.388 588.762 443.05 597.029 438.603C636.089 417.371 654.288 389.913 657.95 363.066C659.892 348.726 657.673 334.33 652.291 320.99C646.798 307.484 638.087 295.2 627.045 285.306C605.573 266.075 575.446 255.959 543.986 263.796C531.225 266.964 520.184 273.356 510.53 282.36C500.265 291.921 491.388 304.427 483.62 319.212C479.237 327.549 468.972 330.717 460.705 326.382C452.383 321.991 449.22 311.708 453.548 303.426C463.091 285.306 474.243 269.743 487.448 257.404C501.264 244.564 517.299 235.337 535.941 230.724C579.219 219.997 620.443 233.67 649.738 259.905C664.608 273.245 676.426 289.864 683.861 308.206C691.351 326.715 694.403 347.059 691.573 367.68C686.524 404.475 662.999 441.382 613.23 468.451ZM483.065 602.794C418.704 516.197 417.151 434.157 495.272 357.897L439.011 326.771C393.958 309.207 311.288 438.659 343.246 473.231L387.078 538.374L378.035 557.272C375.538 562.886 377.979 566.832 384.082 569.556L390.019 571.168L276 797.223L299.081 846.525L345.244 832.907L357.117 809.784L345.743 788.441L370.822 783.049L376.647 771.71L363.553 751.701L372.153 734.97L397.176 731.802L405.333 715.961L391.351 697.674L400.284 680.332L425.806 676.164L460.539 609.742L466.42 612.966C476.629 619.191 481.9 615.189 483.065 602.794ZM604.186 657.099L587.208 720.574L563.628 729.912L558.69 748.421L575.889 763.039L571.395 779.881L548.092 788.107L543.321 805.894L560.021 822.29L556.803 834.352L533.888 844.746L549.202 862.81L542.599 887.433L501.264 910.056L468.972 867.646L530.559 637.367L515.634 633.365C512.583 632.531 510.696 629.363 511.528 626.25L517.798 602.85C472.634 568.556 450.274 509.193 465.81 450.998C485.784 376.239 561.131 331.106 635.812 347.892C636.145 351.894 636.089 355.952 635.535 360.009C634.147 370.125 629.764 380.519 621.664 390.58C620.554 391.914 619.389 393.303 618.168 394.637C594.31 393.081 571.95 408.533 565.514 432.545C562.74 442.883 563.35 453.333 566.624 462.726C567.401 466.061 568.677 469.285 570.341 472.453C574.28 479.679 580.051 485.182 586.82 488.683C591.259 491.629 596.252 493.852 601.634 495.353C628.433 502.523 655.897 487.071 663.887 460.67C671.987 453.499 679.034 445.94 685.081 438.159C696.844 422.984 704.889 406.866 709.661 390.469C742.063 425.486 756.323 475.899 743.062 525.479C727.527 583.674 678.423 623.916 622.274 630.975L616.004 654.375C615.172 657.432 612.009 659.322 608.902 658.488L604.186 657.099Z" fill="white"/>
</g>
<defs>
<clipPath id="clip0_273_19">
<rect width="472" height="683" fill="white" transform="translate(276 227)"/>
</clipPath>
</defs>
</svg>
